<?xml version="1.0" encoding="UTF-8"?>
<!DOCTYPE svg PUBLIC "-//W3C//DTD SVG 1.1//EN" "http://www.w3.org/Graphics/SVG/1.1/DTD/svg11.dtd">
<!-- Creator: CorelDRAW (OEM Version) -->
<svg xmlns="http://www.w3.org/2000/svg" xml:space="preserve" width="33px" height="48px" version="1.1" style="shape-rendering:geometricPrecision; text-rendering:geometricPrecision; image-rendering:optimizeQuality; fill-rule:evenodd; clip-rule:evenodd"
viewBox="0 0 0.68 1"
 xmlns:xlink="http://www.w3.org/1999/xlink"
 xmlns:xodm="http://www.corel.com/coreldraw/odm/2003">
 <defs>
  <style type="text/css">
   <![CDATA[
    .fil1 {fill:#113059}
    .fil0 {fill:#675EED}
   ]]>
  </style>
 </defs>
 <g id="Layer_x0020_1">
  <metadata id="CorelCorpID_0Corel-Layer"/>
  <g id="_2380479427824">
   <path class="fil0" d="M0.33 0.2c0.07,0 0.12,0.06 0.11,0.13 0,0 0,0.01 0,0.02l0.15 0.13c0.12,0.11 0.13,0.3 0.02,0.42 -0.11,0.12 -0.3,0.13 -0.43,0.02l-0.12 -0.11 -0.06 -0.05 0 0 0 -0.16 0.13 0.12 0.13 0.11c0.08,0.07 0.19,0.06 0.26,-0.01 0.06,-0.07 0.06,-0.19 -0.02,-0.25l-0.14 -0.13c-0.01,0 -0.03,0 -0.05,0 -0.06,0 -0.12,-0.06 -0.11,-0.13 0,-0.07 0.06,-0.12 0.13,-0.11zm0 0.06c0.03,0.01 0.05,0.03 0.05,0.06 -0.01,0.03 -0.03,0.06 -0.06,0.05 -0.03,0 -0.06,-0.02 -0.05,-0.05 0,-0.03 0.02,-0.06 0.06,-0.06z"/>
   <path class="fil1" d="M0.37 0.56c0.07,0 0.12,0.06 0.12,0.13 -0.01,0.07 -0.07,0.12 -0.13,0.11 -0.07,0 -0.12,-0.06 -0.12,-0.13 0,0 0,-0.01 0,-0.02l-0.14 -0.13c-0.12,-0.11 -0.13,-0.3 -0.02,-0.42l0 0c0.11,-0.12 0.3,-0.13 0.42,-0.02l0.15 0.13 0.03 0.03 0 0.16 -0.04 -0.03 -0.07 -0.07 -0.15 -0.13c-0.07,-0.07 -0.19,-0.06 -0.25,0.01 -0.07,0.07 -0.06,0.19 0.01,0.25l0.14 0.13c0.02,0 0.03,0 0.05,0zm0 0.07c0.03,0 0.05,0.02 0.05,0.05 0,0.03 -0.03,0.06 -0.06,0.06 -0.03,-0.01 -0.05,-0.03 -0.05,-0.06 0,-0.03 0.03,-0.06 0.06,-0.05z"/>
  </g>
 </g>
</svg>
